<svg xmlns="http://www.w3.org/2000/svg" width="21.24" height="18.291" viewBox="0 0 21.24 18.291">
  <g id="bill-ecommerce-shop-svgrepo-com" transform="translate(-3.75 -7.735)" opacity="0.7">
    <path id="Path_39" data-name="Path 39" d="M24,15.4H21.037V8.736A.741.741,0,0,0,19.926,8.1l-3.333,1.937-3.7-1.952a.741.741,0,0,0-.7,0L8.485,10.1l-3.374-2A.741.741,0,0,0,4,8.736V23.18a2.593,2.593,0,0,0,2.593,2.593H21.777a.766.766,0,0,0,.13,0h.241A2.593,2.593,0,0,0,24.74,23.18V16.143A.741.741,0,0,0,24,15.4ZM6.593,24.291A1.111,1.111,0,0,1,5.481,23.18V10.043l2.593,1.548a.741.741,0,0,0,.741.019l3.7-2.033,3.722,1.956a.741.741,0,0,0,.715,0l2.593-1.481V23.18a2.548,2.548,0,0,0,.252,1.111ZM23.259,23.18a1.111,1.111,0,0,1-2.222,0v-6.3h2.222Z" transform="translate(0 0)" fill="#fff8fa" stroke="#fff" stroke-width="0.5"/>
    <path id="Path_40" data-name="Path 40" d="M22.889,28H14.741a.741.741,0,1,0,0,1.481h8.148a.741.741,0,1,0,0-1.481Z" transform="translate(-6.296 -12.597)" fill="#fff8fa" stroke="#fff" stroke-width="0.5"/>
    <path id="Path_41" data-name="Path 41" d="M22.889,40H14.741a.741.741,0,0,0,0,1.481h8.148a.741.741,0,1,0,0-1.481Z" transform="translate(-6.296 -20.153)" fill="#fff8fa" stroke="#fff" stroke-width="0.5"/>
  </g>
</svg>
