<svg xmlns="http://www.w3.org/2000/svg" width="37.368" height="37.366" viewBox="0 0 37.368 37.366">
  <path id="shopping-basket-Regular_1_" d="M509.539,1180.682v5.749a1.437,1.437,0,1,1-2.874,0v-5.749a1.437,1.437,0,1,1,2.874,0Zm6.228-1.437a1.438,1.438,0,0,0-1.437,1.437v5.749a1.437,1.437,0,0,0,2.874,0v-5.749A1.438,1.438,0,0,0,515.766,1179.245Zm11.875-3.422-1.47,11.516a7.2,7.2,0,0,1-7.128,6.276H504.867a7.2,7.2,0,0,1-7.125-6.253l-1.514-11.539a5.256,5.256,0,0,1,2.29-9.993h3.02l5.329-8.883a1.437,1.437,0,1,1,2.464,1.479l-4.444,7.4h14.086l-4.444-7.4a1.437,1.437,0,1,1,2.464-1.479l5.329,8.883h3.024a5.257,5.257,0,0,1,2.294,9.993Zm-2.968.548H499.2l1.393,10.619a4.323,4.323,0,0,0,4.273,3.752h14.176a4.318,4.318,0,0,0,4.275-3.765Zm3.07-5.27a2.4,2.4,0,0,0-2.4-2.4H498.52a2.4,2.4,0,1,0,0,4.79h26.827A2.4,2.4,0,0,0,527.743,1171.1Z" transform="translate(-493.249 -1156.249)" fill="#292929"/>
</svg>
