<svg xmlns="http://www.w3.org/2000/svg" width="29.492" height="29.492" viewBox="0 0 29.492 29.492">
  <g id="arrow-left-svgrepo-com_1_" data-name="arrow-left-svgrepo-com (1)" transform="translate(31.492 31.492) rotate(180)">
    <path id="Path_44" data-name="Path 44" d="M15.938,7.46a1.134,1.134,0,0,0-1.6,0l-4.98,4.98a2.647,2.647,0,0,0,0,3.743l4.98,4.98a1.134,1.134,0,0,0,1.6-1.6l-4.98-4.98a.378.378,0,0,1,0-.535l4.98-4.98A1.134,1.134,0,0,0,15.938,7.46Z" transform="translate(3.122 2.434)" fill="#fff" fill-rule="evenodd"/>
    <path id="Path_45" data-name="Path 45" d="M16.746,4.269c-3.2,0-7.57.294-10.3.505A1.811,1.811,0,0,0,4.774,6.446c-.211,2.73-.505,7.1-.505,10.3s.294,7.57.505,10.3a1.811,1.811,0,0,0,1.672,1.672c2.73.211,7.1.5,10.3.5s7.57-.293,10.3-.5a1.812,1.812,0,0,0,1.672-1.672c.211-2.73.5-7.1.5-10.3s-.293-7.57-.5-10.3a1.811,1.811,0,0,0-1.672-1.672C24.317,4.562,19.945,4.269,16.746,4.269ZM6.271,2.512C9,2.3,13.451,2,16.746,2s7.744.3,10.476.512a4.08,4.08,0,0,1,3.759,3.759c.212,2.731.512,7.18.512,10.476s-.3,7.744-.512,10.476a4.08,4.08,0,0,1-3.759,3.759c-2.731.212-7.181.512-10.476.512S9,31.192,6.271,30.981a4.08,4.08,0,0,1-3.759-3.759C2.3,24.491,2,20.041,2,16.746S2.3,9,2.512,6.271A4.08,4.08,0,0,1,6.271,2.512Z" fill="#fff" fill-rule="evenodd"/>
  </g>
</svg>
