<svg width="24" height="18" viewBox="0 0 24 18" fill="none" xmlns="http://www.w3.org/2000/svg">
<path d="M22 0H2C1.46957 0 0.960859 0.210714 0.585786 0.585786C0.210714 0.960859 0 1.46957 0 2L0 16C0 16.5304 0.210714 17.0391 0.585786 17.4142C0.960859 17.7893 1.46957 18 2 18H22C22.5304 18 23.0391 17.7893 23.4142 17.4142C23.7893 17.0391 24 16.5304 24 16V2C24 1.46957 23.7893 0.960859 23.4142 0.585786C23.0391 0.210714 22.5304 0 22 0ZM8 3C8.79565 3 9.55871 3.31607 10.1213 3.87868C10.6839 4.44129 11 5.20435 11 6C11 6.79565 10.6839 7.55871 10.1213 8.12132C9.55871 8.68393 8.79565 9 8 9C7.20435 9 6.44129 8.68393 5.87868 8.12132C5.31607 7.55871 5 6.79565 5 6C5 5.20435 5.31607 4.44129 5.87868 3.87868C6.44129 3.31607 7.20435 3 8 3ZM14 15H2V14C2 12 6 10.9 8 10.9C10 10.9 14 12 14 14V15ZM17.85 11H19.5L21 13L19 15C17.7 14 16.73 12.61 16.28 11C16.1 10.36 16 9.69 16 9C16 8.31 16.1 7.64 16.28 7C16.73 5.38 17.7 4 19 3L21 5L19.5 7H17.85C17.63 7.63 17.5 8.3 17.5 9C17.5 9.7 17.63 10.37 17.85 11Z" fill="black"/>
</svg>
