<svg width="27" height="27" viewBox="0 0 27 27" fill="none" xmlns="http://www.w3.org/2000/svg">
<path d="M11.1714 10.8643L13.4 9.75001L15.6286 10.8643V5.57144H11.1714V10.8643ZM7.82857 18.9429V16.7143H13.4V18.9429H7.82857ZM5.6 23.4C4.98714 23.4 4.46232 23.182 4.02552 22.7459C3.58946 22.3091 3.37143 21.7843 3.37143 21.1714V5.57144C3.37143 4.95858 3.58946 4.43375 4.02552 3.99695C4.46232 3.56089 4.98714 3.34286 5.6 3.34286H21.2C21.8129 3.34286 22.3377 3.56089 22.7745 3.99695C23.2105 4.43375 23.4286 4.95858 23.4286 5.57144V21.1714C23.4286 21.7843 23.2105 22.3091 22.7745 22.7459C22.3377 23.182 21.8129 23.4 21.2 23.4H5.6ZM5.6 5.57144V21.1714V5.57144ZM5.6 21.1714H21.2V5.57144H17.8571V14.4857L13.4 12.2572L8.94286 14.4857V5.57144H5.6V21.1714Z" fill="#1D8F78"/>
</svg>
