<svg xmlns="http://www.w3.org/2000/svg" width="18.172" height="18.172" viewBox="0 0 18.172 18.172">
  <g id="_-Product-Icons" data-name="ðŸ”-Product-Icons" transform="translate(-1.744 -1.672)" opacity="0.7">
    <g id="ic_fluent_edit_24_regular" transform="translate(1.999 1.922)">
      <path id="_-Color" data-name="ðŸŽ¨-Color" d="M18.744,2.844a3.148,3.148,0,0,1,0,4.453L8.213,17.827a1.98,1.98,0,0,1-.879.51l-4.5,1.228a.66.66,0,0,1-.81-.81l1.228-4.5a1.98,1.98,0,0,1,.51-.879l10.53-10.53A3.148,3.148,0,0,1,18.744,2.844Zm-5.306,2.72L4.694,14.307a.659.659,0,0,0-.17.293L3.6,17.987l3.387-.924a.659.659,0,0,0,.293-.17l8.744-8.744Zm1.786-1.786-.854.853,2.586,2.587.854-.853a1.829,1.829,0,0,0-2.586-2.586Z" transform="translate(-1.999 -1.922)" fill="#fff" stroke="#fff" stroke-width="0.5"/>
    </g>
  </g>
</svg>
