<svg width="27" height="27" viewBox="0 0 27 27" fill="none" xmlns="http://www.w3.org/2000/svg">
<path d="M6.68571 21.1714H10.0286V14.4857H16.7143V21.1714H20.0571V11.1429L13.3714 6.12857L6.68571 11.1429V21.1714ZM6.68571 23.4C6.07285 23.4 5.5484 23.182 5.11234 22.7459C4.67554 22.3091 4.45714 21.7843 4.45714 21.1714V11.1429C4.45714 10.79 4.53625 10.4557 4.69448 10.14C4.85197 9.82428 5.07 9.56428 5.34857 9.35999L12.0343 4.34571C12.2386 4.19714 12.4521 4.08571 12.675 4.01142C12.8979 3.93714 13.13 3.89999 13.3714 3.89999C13.6129 3.89999 13.845 3.93714 14.0679 4.01142C14.2907 4.08571 14.5043 4.19714 14.7086 4.34571L21.3943 9.35999C21.6729 9.56428 21.8913 9.82428 22.0495 10.14C22.207 10.4557 22.2857 10.79 22.2857 11.1429V21.1714C22.2857 21.7843 22.0677 22.3091 21.6316 22.7459C21.1948 23.182 20.67 23.4 20.0571 23.4H14.4857V16.7143H12.2571V23.4H6.68571Z" fill="#121212"/>
</svg>