<svg xmlns="http://www.w3.org/2000/svg" width="19.702" height="20.099" viewBox="0 0 19.702 20.099">
  <path id="like-svgrepo-com_1_" data-name="like-svgrepo-com (1)" d="M22.718,13.477V11.889c0-.016,0-.032,0-.048V10.575a4.274,4.274,0,0,0-4.269-4.269H15.534l1.021-2.029a2.956,2.956,0,1,0-5.288-2.644L8.876,6.416a.981.981,0,0,0-.452-.11H4a.985.985,0,0,0-.985.985V19.113A.985.985,0,0,0,4,20.1H8.424a.985.985,0,0,0,.985-.985v-.139A6.851,6.851,0,0,0,13.193,20.1h5.254a4.274,4.274,0,0,0,4.269-4.268v-.337c0-.02,0-.039,0-.059ZM7.439,18.128H8.876L7.439,8.276Zm11.009,0H13.193a4.884,4.884,0,0,1-3.784-1.772l3.784-4.466-.164-9.374c.168-.336.506,2.264.882,2.264.543,0,.648-3.353.648-2.81,0,.155-1.3-.471-1.366-.336L10.4,5.764c-.154.305-2.156,12.073-1.977,12.364s12.577.846,12.919.846V14.955s0-5.2,0-5.2c1.267,0-.6-.446-.6.821l0,2.9,0,2.352A2.3,2.3,0,0,1,18.447,18.128Z" transform="translate(-3.017 0.001)" fill="#fff"/>
</svg>
