<svg xmlns="http://www.w3.org/2000/svg" xmlns:xlink="http://www.w3.org/1999/xlink" width="439.283" height="928" viewBox="0 0 439.283 928">
  <defs>
    <clipPath id="clip-path">
      <rect id="Rectangle_23" data-name="Rectangle 23" width="437.528" height="203.726" fill="#eaefed"/>
    </clipPath>
    <clipPath id="clip-path-2">
      <rect id="Rectangle_22" data-name="Rectangle 22" width="428" height="262" fill="#eaefed"/>
    </clipPath>
  </defs>
  <g id="Group_36" data-name="Group 36" transform="translate(9.528)">
    <g id="Group_35" data-name="Group 35">
      <g id="Group_13" data-name="Group 13" transform="translate(-9.528 724.274)" opacity="0.56">
        <g id="Group_12" data-name="Group 12" clip-path="url(#clip-path)">
          <path id="Path_14" data-name="Path 14" d="M0,203.726S178.9,53.605,235.682,87.441C330.1,143.7,437.528,0,437.528,0V203.726Z" fill="#eaefed"/>
        </g>
      </g>
      <path id="Path_19" data-name="Path 19" d="M496.318,1933.719l-.637-.771c.11-.091,11.21-9.24,28.478-22.078,10.142-7.54,20.4-14.859,30.48-21.754,12.6-8.619,24.976-16.6,36.769-23.711,30.033-18.116,56.551-30.813,78.818-37.737a155.25,155.25,0,0,1,18.34-4.578,97.165,97.165,0,0,1,16.958-1.655h.127a60.19,60.19,0,0,1,15.033,1.771,41.758,41.758,0,0,1,12.927,5.713c13.8,9.3,31.185,11.848,51.677,7.576,32.139-6.7,64.739-28.35,86.428-45.333,25.668-20.1,46.189-41.757,53.194-52.764l.844.537c-3.7,5.822-10.683,14.017-19.648,23.074a364.546,364.546,0,0,1-33.773,29.94,310.054,310.054,0,0,1-42.126,28.079c-15.975,8.721-31.019,14.591-44.714,17.446a83.4,83.4,0,0,1-27.682,1.46,60.012,60.012,0,0,1-12.849-3.109,55.384,55.384,0,0,1-11.909-6.077c-7.219-4.865-16.389-7.3-27.422-7.3q-15.219,0-35.1,6.173c-22.189,6.9-48.632,19.561-78.594,37.634-26.672,16.089-51.248,33.574-67.168,45.409C507.514,1924.491,496.428,1933.628,496.318,1933.719Z" transform="translate(-496 -1014.392)" fill="#24d8a1"/>
    </g>
    <g id="Group_34" data-name="Group 34">
      <g id="Group_11" data-name="Group 11" opacity="0.56">
        <g id="Group_10" data-name="Group 10" clip-path="url(#clip-path-2)">
          <path id="Path_13" data-name="Path 13" d="M0,261.236s72.471-157.1,170.439-130.618C278.1,159.719,428,85.462,428,85.462V0H0Z" fill="#eaefed"/>
        </g>
      </g>
      <path id="Path_17" data-name="Path 17" d="M.46,1273.7l-.921-.39c.038-.089,3.84-9.015,10.811-22.025,4.094-7.64,8.465-15.174,12.991-22.395,5.659-9.027,11.578-17.586,17.594-25.439,15.323-20,31.359-35.607,47.663-46.379a112.5,112.5,0,0,1,29.418-14.107,89.651,89.651,0,0,1,15.961-3.277,84.979,84.979,0,0,1,16.732-.182c12.021,1.061,22.917,2.272,33.453,3.444,20.906,2.325,39.316,4.371,58.517,4.371,44.328,0,92.913-10.9,186.441-54.437l.422.907c-32.824,15.28-60.752,26.816-85.379,35.265-22.9,7.857-43.216,13.122-62.109,16.1a252.217,252.217,0,0,1-39.867,3.12c-3.247,0-6.534-.058-9.881-.172-15.723-.538-31.525-2.3-48.255-4.155-10.531-1.171-21.421-2.382-33.431-3.442-2.435-.215-4.854-.319-7.243-.319-43.339,0-78.951,34.245-101.649,63.875a359.57,359.57,0,0,0-30.5,47.7C4.282,1264.722.5,1273.607.46,1273.7Z" transform="translate(0 -1011.5)" fill="#24d8a1"/>
    </g>
  </g>
</svg>
