<svg id="exit-svgrepo-com" xmlns="http://www.w3.org/2000/svg" width="23.335" height="23.335" viewBox="0 0 23.335 23.335">
  <g id="Group_20" data-name="Group 20">
    <g id="Group_19" data-name="Group 19">
      <path id="Path_47" data-name="Path 47" d="M.972,14.584a.972.972,0,0,1,.972.972v5.834H13.612V1.945H1.945V7.778A.972.972,0,0,1,0,7.778V.972A.972.972,0,0,1,.972,0H14.584a.972.972,0,0,1,.972.972V22.363a.972.972,0,0,1-.972.972H.972A.972.972,0,0,1,0,22.363V15.557A.972.972,0,0,1,.972,14.584Z" transform="translate(7.778)" fill="#fff"/>
      <path id="Path_48" data-name="Path 48" d="M234.887,154.812c-.009-.011-.017-.023-.026-.035s-.021-.027-.031-.042-.017-.028-.026-.042-.016-.026-.023-.039-.014-.029-.021-.044-.014-.028-.02-.042-.011-.029-.016-.044-.011-.031-.016-.046-.008-.029-.011-.044-.009-.032-.012-.048-.005-.034-.008-.051,0-.028-.006-.043a.979.979,0,0,1,0-.192c0-.014,0-.028.006-.043s0-.034.008-.052.008-.032.012-.048.007-.03.011-.044.011-.031.016-.046.01-.029.016-.044.013-.028.02-.042.014-.03.021-.044.015-.026.023-.039.017-.029.026-.042.02-.028.031-.042.017-.024.026-.035.041-.048.063-.07h0l3.889-3.889a.972.972,0,1,1,1.375,1.375l-2.229,2.229h8.348a.972.972,0,1,1,0,1.945h-8.348l2.229,2.229a.972.972,0,1,1-1.375,1.375l-3.889-3.889h0Q234.917,154.849,234.887,154.812Z" transform="translate(-234.667 -142.529)" fill="#fff"/>
    </g>
  </g>
</svg>
