<svg width="254" height="239" viewBox="0 0 254 239" fill="none" xmlns="http://www.w3.org/2000/svg">
<g clip-path="url(#clip0_112_730)">
<path d="M2.43321 33.3821C-3.90086 51.9449 3.6498 71.9741 7.72446 91.1736C11.0703 107.023 11.9949 123.287 10.4667 139.414C9.34668 151.396 6.8555 163.302 7.04861 175.343C7.12193 190.698 12.2222 205.607 21.5707 217.794C26.2781 223.823 32.1888 228.808 38.9275 232.432C45.6662 236.056 53.0856 238.24 60.7144 238.846C75.1977 239.695 89.1597 234.157 103.199 230.741C116.71 227.467 130.617 226.123 144.506 226.747C153.775 227.152 163.025 228.445 172.314 228.58C196.646 228.889 224.705 219.183 239.323 198.691C266.823 160.099 253.363 101.381 216.614 73.7686C199.485 60.8982 178.686 53.5078 157.541 50.1696C142.42 47.7962 126.643 47.3138 112.661 41.197C97.2125 34.5013 85.5292 21.6888 71.4707 12.5425C45.5744 -4.30292 13.0737 2.27701 2.43321 33.3821Z" fill="#9BD3C8"/>
<g style="mix-blend-mode:multiply">
<path d="M217.444 203.167H29.913V212.873H217.444V203.167Z" fill="#D5D5D5"/>
</g>
<path d="M179.555 89.7263H37.8113V205.406H179.555V89.7263Z" fill="#40B8A0"/>
<path d="M209.14 89.7263H174.592V205.406H209.14V89.7263Z" fill="#1D8F78"/>
<path d="M72.3204 89.7263H37.8113L18.5001 68.1727H53.0092L72.3204 89.7263Z" fill="#459786"/>
<path d="M174.592 89.7263H209.101L228.413 68.1727H193.904L174.592 89.7263Z" fill="#459786"/>
<path d="M133.498 127.431H37.8113V177.272H133.498V127.431Z" fill="white"/>
<path d="M112.855 136.924H45.4006V140.841H112.855V136.924Z" fill="#40B8A0"/>
<path d="M112.855 145.607H45.4006V149.525H112.855V145.607Z" fill="#40B8A0"/>
<path d="M78.0558 154.271H45.4006V158.188H78.0558V154.271Z" fill="#40B8A0"/>
<path d="M142.034 159.095C142.034 161.004 141.468 162.869 140.407 164.456C139.346 166.042 137.838 167.279 136.073 168.009C134.309 168.739 132.367 168.93 130.494 168.558C128.621 168.186 126.901 167.267 125.551 165.918C124.2 164.568 123.281 162.849 122.908 160.978C122.536 159.106 122.727 157.166 123.458 155.403C124.188 153.64 125.426 152.134 127.014 151.073C128.602 150.013 130.469 149.447 132.378 149.447C134.939 149.447 137.395 150.464 139.206 152.273C141.017 154.083 142.034 156.537 142.034 159.095Z" fill="#1D8F78"/>
<path d="M96.8842 43.2809L112.333 68.1534L137.245 52.7166C137.245 52.7166 155.822 43.3194 158.487 32.1664C161.345 19.9906 154.354 10.7478 143.656 8.23935C140.413 7.47794 137.031 7.54178 133.819 8.42502C130.607 9.30827 127.668 10.9827 125.272 13.2949C124.161 10.1591 122.279 7.35284 119.799 5.13414C117.318 2.91545 114.319 1.3556 111.078 0.598132C100.36 -1.91034 89.99 3.2417 87.132 15.4175C84.525 26.5898 96.8842 43.2809 96.8842 43.2809Z" fill="#1D8F78"/>
</g>
<defs>
<clipPath id="clip0_112_730">
<rect width="254" height="239" fill="white"/>
</clipPath>
</defs>
</svg>