<svg width="244" height="212" viewBox="0 0 244 212" fill="none" xmlns="http://www.w3.org/2000/svg">
<g clip-path="url(#clip0_112_467)">
<path d="M126.102 7.66736H0V94.3224H126.102V7.66736Z" fill="#49B09B"/>
<path d="M73.253 39.2023H0V43.142H73.253V39.2023Z" fill="#C6E5AE"/>
<path d="M126.102 58.247H78.1154V62.1867H126.102V58.247Z" fill="#C6E5AE"/>
<path d="M78.1154 7.66736H73.2531V94.3224H78.1154V7.66736Z" fill="#C6E5AE"/>
<path d="M40.2777 0C35.8603 0 31.6239 1.75334 28.5004 4.87432C25.3768 7.9953 23.6221 12.2283 23.6221 16.642C23.6221 25.8287 40.2777 41.6403 40.2777 41.6403C40.2777 41.6403 56.9157 25.8287 56.9157 16.642C56.918 14.4574 56.4894 12.2937 55.6543 10.2747C54.8192 8.25571 53.594 6.42098 52.0488 4.8754C50.5036 3.32981 48.6686 2.10368 46.6489 1.26712C44.6291 0.430567 42.4641 -1.23358e-06 40.2777 0ZM40.2777 18.497C39.2286 18.497 38.203 18.1861 37.3307 17.6038C36.4584 17.0214 35.7786 16.1937 35.3771 15.2252C34.9756 14.2568 34.8706 13.1911 35.0753 12.163C35.2799 11.1349 35.7851 10.1906 36.527 9.44933C37.2688 8.70811 38.2139 8.20332 39.2429 7.99882C40.2718 7.79432 41.3383 7.89927 42.3076 8.30042C43.2768 8.70156 44.1053 9.38089 44.6881 10.2525C45.271 11.124 45.582 12.1488 45.582 13.197C45.582 14.6026 45.0232 15.9507 44.0285 16.9446C43.0337 17.9386 41.6845 18.497 40.2777 18.497Z" fill="#1D8F78"/>
<path d="M134.147 178.928H52.5837V129.02L80.4669 79.1113H134.147V178.928Z" fill="#49B09B"/>
<path d="M325.528 45.0677H134.147V178.946H325.528V45.0677Z" fill="#F5F5F5"/>
<path d="M52.5837 129.02H101.136V84.4467H77.4788L52.5837 129.02Z" fill="white"/>
<path d="M134.147 165.89H49.5956V181.684H134.147V165.89Z" fill="#1D8F78"/>
<path d="M62.3438 151.757H56.5797V163.417H62.3438V151.757Z" fill="#1D8F78"/>
<path d="M56.5797 151.757H50.8157V163.417H56.5797V151.757Z" fill="white"/>
<path d="M123.414 84.4467H105.539V129.02H123.414V84.4467Z" fill="#1D8F78"/>
<path d="M244.018 165.89H134.147V181.684H244.018V165.89Z" fill="#49B09B"/>
<path d="M144.932 45.0677H134.147V165.89H144.932V45.0677Z" fill="#49B09B"/>
<path d="M123.962 189.67C126.248 175.658 116.734 162.448 102.711 160.163C88.6876 157.879 75.4663 167.386 73.18 181.397C70.8937 195.409 80.4082 208.619 94.4311 210.903C108.454 213.188 121.675 203.681 123.962 189.67Z" fill="#1D8F78"/>
<path d="M112.436 190.29C115.047 182.654 110.968 174.35 103.326 171.741C95.6836 169.133 87.3722 173.209 84.7617 180.844C82.1512 188.48 86.2301 196.785 93.8722 199.393C101.514 202.002 109.826 197.926 112.436 190.29Z" fill="#E7EFB4"/>
<path d="M98.5725 198.061C105.574 198.061 111.25 192.39 111.25 185.394C111.25 178.398 105.574 172.727 98.5725 172.727C91.5709 172.727 85.8951 178.398 85.8951 185.394C85.8951 192.39 91.5709 198.061 98.5725 198.061Z" fill="#E3ECFF"/>
<path d="M101.119 127.748H52.5837V129.02H101.119V127.748Z" fill="#1D8F78"/>
<path d="M223.048 139.443H158.901V142.04H223.048V139.443Z" fill="#1D8F78"/>
<path d="M177.006 89.6583H112.859V92.2553H177.006V89.6583Z" fill="#1D8F78"/>
<path d="M185.263 189.228H121.116V191.825H185.263V189.228Z" fill="#1D8F78"/>
<path d="M253.23 149.16H189.082V151.757H253.23V149.16Z" fill="#1D8F78"/>
</g>
<defs>
<clipPath id="clip0_112_467">
<rect width="244" height="212" fill="white"/>
</clipPath>
</defs>
</svg>