<svg width="217" height="268" viewBox="0 0 217 268" fill="none" xmlns="http://www.w3.org/2000/svg">
<g clip-path="url(#clip0_112_868)">
<path opacity="0.3" d="M109.661 4.12149C93.5263 11.5752 85.0922 29.0782 75.0166 43.7752C66.6991 55.8847 56.6088 66.6636 45.0868 75.7472C36.513 82.4993 27.1533 88.3044 19.3828 95.9686C9.33457 105.628 2.72133 118.333 0.558752 132.132C-0.470902 138.991 -0.0713276 145.99 1.73217 152.686C3.53566 159.382 6.70378 165.629 11.0359 171.032C19.505 181.099 31.8332 186.816 42.8517 193.989C53.4038 200.853 62.9438 209.171 71.1924 218.7C76.693 225.084 81.6696 231.977 87.2924 238.185C102.222 254.408 126.058 266.825 148.619 263.633C191.017 257.652 221.243 212.001 216.494 170.506C214.293 151.214 206.191 132.851 195.207 116.839C187.367 105.387 177.885 94.7409 173.17 81.6575C168.019 67.3464 169.084 51.5796 166.343 36.6021C161.209 8.96201 136.762 -8.36565 109.661 4.12149Z" fill="#459786"/>
<path d="M161.209 18.8184H50.8668C39.2545 18.8184 29.8251 26.2546 29.8251 35.4446V233.625C29.8251 242.815 39.2545 250.269 50.8668 250.269H161.209C172.821 250.269 182.163 242.815 182.163 233.625V35.4446C182.163 26.2546 172.734 18.8184 161.209 18.8184Z" fill="#5A5A5A"/>
<path d="M160.528 24.0798H51.4605C42.7295 24.0798 35.5526 29.7096 35.5526 36.6547V232.415C35.5526 239.43 42.6771 244.99 51.4605 244.99H160.528C169.259 244.99 176.436 239.36 176.436 232.415V36.6547C176.436 29.7096 169.311 24.0798 160.528 24.0798Z" fill="#E3ECFF"/>
<path d="M24.6389 83.3412C21.4248 83.3412 18.3424 82.0588 16.0697 79.7762C13.797 77.4936 12.5203 74.3978 12.5203 71.1697L40.5991 24.1149H64.8189L36.74 71.0645C36.7539 72.6702 36.4512 74.2628 35.8495 75.7505C35.2477 77.2383 34.3588 78.5917 33.234 79.7329C32.1091 80.874 30.7706 81.7804 29.2954 82.3996C27.8203 83.0189 26.2377 83.3389 24.6389 83.3412Z" fill="#459786"/>
<path d="M48.8062 83.3412C47.2074 83.3389 45.6248 83.0189 44.1496 82.3996C42.6745 81.7804 41.336 80.874 40.2111 79.7329C39.0863 78.5917 38.1974 77.2383 37.5956 75.7505C36.9939 74.2628 36.6912 72.6702 36.705 71.0645L64.7839 24.0097H89.0037L60.9248 71.0645C60.9387 72.6717 60.6354 74.2657 60.0326 75.7546C59.4298 77.2435 58.5393 78.5977 57.4126 79.7391C56.2859 80.8805 54.9453 81.7865 53.4681 82.4047C51.991 83.0229 50.4065 83.3412 48.8062 83.3412V83.3412Z" fill="#1D8F78"/>
<path d="M72.9911 83.3412C69.7801 83.3365 66.7021 82.0521 64.4332 79.77C62.1643 77.4879 60.89 74.3947 60.89 71.1697L88.9513 24.1149H113.189L85.1097 71.0645C85.1235 72.6717 84.8203 74.2657 84.2175 75.7546C83.6147 77.2435 82.7242 78.5977 81.5975 79.7391C80.4708 80.8805 79.1302 81.7865 77.653 82.4047C76.1758 83.0229 74.5914 83.3412 72.9911 83.3412Z" fill="#459786"/>
<path d="M97.1759 83.3412C93.9619 83.3412 90.8795 82.0588 88.6068 79.7762C86.3341 77.4936 85.0573 74.3978 85.0573 71.1697L113.136 24.1149H137.356L109.277 71.0645C109.291 72.6702 108.988 74.2628 108.386 75.7505C107.785 77.2383 106.896 78.5917 105.771 79.7329C104.646 80.874 103.308 81.7804 101.832 82.3996C100.357 83.0189 98.7748 83.3389 97.1759 83.3412Z" fill="#1D8F78"/>
<path d="M121.361 83.3412C118.147 83.3412 115.064 82.0588 112.792 79.7762C110.519 77.4936 109.242 74.3978 109.242 71.1697L137.321 24.1149H161.541L133.462 71.0645C133.476 72.6702 133.173 74.2628 132.571 75.7505C131.97 77.2383 131.081 78.5917 129.956 79.7329C128.831 80.874 127.492 81.7804 126.017 82.3996C124.542 83.0189 122.96 83.3389 121.361 83.3412Z" fill="#459786"/>
<path d="M161.588 24.0812L133.3 71.0783C133.238 72.7143 133.982 74.3324 134.562 75.8622C135.143 77.3921 136.025 78.7885 137.156 79.968C138.286 81.1475 139.642 82.0858 141.142 82.7267C142.643 83.3675 144.256 83.6978 145.886 83.6978C147.516 83.6978 149.13 83.3675 150.63 82.7267C152.13 82.0858 153.486 81.1475 154.616 79.968C155.747 78.7885 156.629 77.3921 157.21 75.8622C157.79 74.3324 158.058 72.7005 157.996 71.0645L176.61 39.8466V36.5845C176.61 30.0077 169.847 24.5196 161.588 24.0812Z" fill="#1D8F78"/>
<path d="M124.137 206.529H74.0038V209.633H124.137V206.529Z" fill="#C2C2C2"/>
<path d="M124.137 199.303H74.0038V202.407H124.137V199.303Z" fill="#C2C2C2"/>
<path d="M124.137 213.737H74.0038V216.841H124.137V213.737Z" fill="#C2C2C2"/>
<path d="M136.832 199.303H130.127V206.038H136.832V199.303Z" fill="#459786"/>
<path d="M136.832 209.633H130.127V216.368H136.832V209.633Z" fill="#1D8F78"/>
<path d="M30.5584 267.158C29.9969 266.789 29.5134 266.313 29.1356 265.756C28.7579 265.199 28.4933 264.572 28.357 263.913C28.2207 263.253 28.2155 262.572 28.3415 261.91C28.4676 261.248 28.7225 260.618 29.0916 260.055L52.1764 224.804L60.7153 230.451L37.6131 265.738C37.2433 266.297 36.7673 266.777 36.2124 267.151C35.6575 267.525 35.0345 267.786 34.3792 267.918C33.7239 268.05 33.0491 268.051 32.3935 267.92C31.7378 267.79 31.1142 267.531 30.5584 267.158V267.158Z" fill="#8C968C"/>
<path d="M67.7246 222.942L55.8207 215.076L47.3559 227.999L59.2599 235.865L67.7246 222.942Z" fill="#E4E4E4"/>
<path d="M93.4094 225.064C116.125 220.31 130.703 197.961 125.97 175.147C121.236 152.332 98.9849 137.691 76.2693 142.445C53.5538 147.198 38.9761 169.547 43.7092 192.361C48.4423 215.176 70.6939 229.817 93.4094 225.064Z" stroke="#646464" stroke-width="4" stroke-miterlimit="10"/>
<path opacity="0.31" d="M93.4094 225.064C116.125 220.31 130.703 197.961 125.97 175.147C121.236 152.332 98.9849 137.691 76.2693 142.445C53.5538 147.198 38.9761 169.547 43.7092 192.361C48.4423 215.176 70.6939 229.817 93.4094 225.064Z" fill="white"/>
<path opacity="0.31" d="M113.643 190.692C111.572 193.854 108.615 196.328 105.144 197.802C101.674 199.275 97.8458 199.682 94.145 198.971C90.4442 198.26 87.0365 196.462 84.3528 193.806C81.6691 191.15 79.83 187.753 79.068 184.047C78.3061 180.341 78.6555 176.491 80.0721 172.984C81.4887 169.478 83.9088 166.472 87.0265 164.346C90.1442 162.221 93.8193 161.072 97.5872 161.044C101.355 161.017 105.046 162.112 108.194 164.192C112.416 166.98 115.361 171.339 116.383 176.309C117.405 181.278 116.419 186.452 113.643 190.692V190.692Z" fill="white"/>
</g>
<defs>
<clipPath id="clip0_112_868">
<rect width="217" height="268" fill="white"/>
</clipPath>
</defs>
</svg>