<svg xmlns="http://www.w3.org/2000/svg" width="38.818" height="24.785" viewBox="0 0 38.818 24.785">
  <g id="ticket-svgrepo-com" transform="translate(0 -92.547)">
    <g id="Group_23" data-name="Group 23" transform="translate(0 92.547)">
      <g id="Group_22" data-name="Group 22" transform="translate(0 0)">
        <path id="Path_60" data-name="Path 60" d="M37.333,101.475a1.533,1.533,0,0,0,1.485-1.532V94.08a1.533,1.533,0,0,0-1.533-1.533H1.533A1.533,1.533,0,0,0,0,94.08v5.86a1.533,1.533,0,0,0,1.533,1.533,3.467,3.467,0,0,1,0,6.935A1.533,1.533,0,0,0,0,109.94v5.86a1.533,1.533,0,0,0,1.533,1.533H37.286a1.533,1.533,0,0,0,1.533-1.533v-5.864a1.533,1.533,0,0,0-1.485-1.532,3.466,3.466,0,0,1,0-6.929ZM12.339,114.267H3.065v-2.976a6.534,6.534,0,0,0,0-12.7V95.612h9.273Zm20.418-4.776a6.5,6.5,0,0,0,3,1.76v3.016H15.4V95.612H35.753v3.016a6.532,6.532,0,0,0-3,10.862Z" transform="translate(0 -92.547)" fill="#24d8a1"/>
        <path id="Path_61" data-name="Path 61" d="M237.07,198.673h-9.556a1.533,1.533,0,0,0,0,3.065h9.556a1.533,1.533,0,0,0,0-3.065Z" transform="translate(-208.849 -190.627)" fill="#24d8a1"/>
        <path id="Path_62" data-name="Path 62" d="M237.07,272.895h-9.556a1.533,1.533,0,0,0,0,3.065h9.556a1.533,1.533,0,1,0,0-3.065Z" transform="translate(-208.849 -259.222)" fill="#24d8a1"/>
      </g>
    </g>
  </g>
</svg>
