<svg width="22" height="18" viewBox="0 0 22 18" fill="none" xmlns="http://www.w3.org/2000/svg">
<path d="M3.875 0.75C2.97989 0.75 2.12145 1.10558 1.48851 1.73851C0.855579 2.37145 0.5 3.22989 0.5 4.125V5.25H21.5V4.125C21.5 3.22989 21.1444 2.37145 20.5115 1.73851C19.8785 1.10558 19.0201 0.75 18.125 0.75H3.875ZM0.5 13.875V6.75H21.5V13.875C21.5 14.7701 21.1444 15.6285 20.5115 16.2615C19.8785 16.8944 19.0201 17.25 18.125 17.25H3.875C2.97989 17.25 2.12145 16.8944 1.48851 16.2615C0.855579 15.6285 0.5 14.7701 0.5 13.875ZM14.75 11.25C14.5511 11.25 14.3603 11.329 14.2197 11.4697C14.079 11.6103 14 11.8011 14 12C14 12.1989 14.079 12.3897 14.2197 12.5303C14.3603 12.671 14.5511 12.75 14.75 12.75H17C17.1989 12.75 17.3897 12.671 17.5303 12.5303C17.671 12.3897 17.75 12.1989 17.75 12C17.75 11.8011 17.671 11.6103 17.5303 11.4697C17.3897 11.329 17.1989 11.25 17 11.25H14.75Z" fill="black"/>
</svg>
