<svg width="27" height="27" viewBox="0 0 27 27" fill="none" xmlns="http://www.w3.org/2000/svg">
<path d="M10.0571 12.2571H20.0857V14.4857H10.0571V12.2571ZM20.0857 7.80001H6.71428V10.0286H20.0857V7.80001ZM24.5429 4.45715V24.5143L20.0857 20.0571H4.48571C3.89466 20.0571 3.32781 19.8224 2.90987 19.4044C2.49194 18.9865 2.25714 18.4196 2.25714 17.8286V4.45715C2.25714 3.23143 3.26 2.22858 4.48571 2.22858H22.3143C22.9053 2.22858 23.4722 2.46337 23.8901 2.88131C24.3081 3.29925 24.5429 3.86609 24.5429 4.45715ZM22.3143 4.45715H4.48571V17.8286H21.0106L22.3143 19.1323V4.45715Z" fill="#121212"/>
</svg>