<svg width="27" height="27" viewBox="0 0 27 27" fill="none" xmlns="http://www.w3.org/2000/svg">
<path d="M10.0571 12.2571H20.0857V14.4857H10.0571V12.2571ZM20.0857 7.80001H6.71422V10.0286H20.0857V7.80001ZM24.5428 4.45715V24.5143L20.0857 20.0571H4.48565C3.8946 20.0571 3.32775 19.8224 2.90981 19.4044C2.49188 18.9865 2.25708 18.4196 2.25708 17.8286V4.45715C2.25708 3.23143 3.25994 2.22858 4.48565 2.22858H22.3142C22.9053 2.22858 23.4721 2.46337 23.8901 2.88131C24.308 3.29925 24.5428 3.86609 24.5428 4.45715ZM22.3142 4.45715H4.48565V17.8286H21.0105L22.3142 19.1323V4.45715Z" fill="#1D8F78"/>
</svg>