<svg width="18" height="19" viewBox="0 0 18 19" fill="none" xmlns="http://www.w3.org/2000/svg">
<path d="M8.99996 0C7.20975 0 5.49286 0.711159 4.22699 1.97703C2.96112 3.2429 2.24996 4.95979 2.24996 6.75V10.3515L0.803959 13.9725C0.758669 14.0862 0.741901 14.2093 0.755117 14.331C0.768334 14.4527 0.811133 14.5693 0.87978 14.6706C0.948427 14.772 1.04083 14.855 1.14894 14.9124C1.25704 14.9698 1.37755 14.9999 1.49996 15H16.5C16.6224 14.9999 16.7429 14.9698 16.851 14.9124C16.9591 14.855 17.0515 14.772 17.1201 14.6706C17.1888 14.5693 17.2316 14.4527 17.2448 14.331C17.258 14.2093 17.2412 14.0862 17.196 13.9725L15.75 10.35V6.75C15.75 4.95979 15.0388 3.2429 13.7729 1.97703C12.5071 0.711159 10.7902 0 8.99996 0ZM8.99996 18.75C8.33474 18.7502 7.68833 18.5292 7.16238 18.1219C6.63643 17.7146 6.26076 17.1441 6.09446 16.5H11.9055C11.7392 17.1441 11.3635 17.7146 10.8375 18.1219C10.3116 18.5292 9.66518 18.7502 8.99996 18.75Z" fill="black"/>
</svg>
