<svg xmlns="http://www.w3.org/2000/svg" width="47.369" height="53.86" viewBox="0 0 47.369 53.86">
  <g id="trash-svgrepo-com" transform="translate(-27.567)">
    <g id="Group_18" data-name="Group 18" transform="translate(27.567)">
      <path id="Path_46" data-name="Path 46" d="M69.243,6.718H58.62a7.4,7.4,0,0,0-14.737,0H33.26A5.693,5.693,0,0,0,33.033,18.1V47.141a6.726,6.726,0,0,0,6.718,6.718h23a6.726,6.726,0,0,0,6.718-6.718V18.1a5.693,5.693,0,0,0-.228-11.381Zm-25.4,37.643a1.708,1.708,0,1,1-3.416,0V21.91a1.708,1.708,0,1,1,3.416,0Zm9.114,0a1.708,1.708,0,1,1-3.416,0V21.91a1.708,1.708,0,1,1,3.416,0Zm9.114,0a1.708,1.708,0,1,1-3.416,0V21.91a1.708,1.708,0,0,1,3.416,0Z" transform="translate(-27.567)" fill="#fff"/>
    </g>
  </g>
</svg>
