<svg xmlns="http://www.w3.org/2000/svg" width="18.279" height="18.646" viewBox="0 0 18.279 18.646">
  <path id="like-svgrepo-com_1_" data-name="like-svgrepo-com (1)" d="M21.294,12.5V11.03c0-.015,0-.029,0-.044V9.811a3.965,3.965,0,0,0-3.96-3.96h-2.7l.947-1.882a2.742,2.742,0,1,0-4.905-2.453L8.452,5.953a.91.91,0,0,0-.419-.1h-4.1a.914.914,0,0,0-.914.914V17.731a.914.914,0,0,0,.914.914h4.1a.914.914,0,0,0,.914-.914V17.6a6.356,6.356,0,0,0,3.511,1.043h4.874a3.965,3.965,0,0,0,3.96-3.96v-.312c0-.018,0-.036,0-.055ZM7.119,16.817H4.845V7.678H7.119Zm10.213,0H12.458a4.531,4.531,0,0,1-3.511-1.644V9.049l3.358-6.716a.914.914,0,0,1,1.732.408.9.9,0,0,1-.1.407L12.33,6.353a.914.914,0,0,0,.816,1.325h4.188a2.135,2.135,0,0,1,2.131,2.133l0,2.691,0,2.182A2.135,2.135,0,0,1,17.332,16.817Z" transform="translate(-3.017 0.001)" fill="#fff" opacity="0.7"/>
</svg>
